<mxfile host="app.diagrams.net" modified="2024-02-10T09:36:37.234Z" agent="Mozilla/5.0 (Macintosh; Intel Mac OS X 10.15; rv:122.0) Gecko/20100101 Firefox/122.0" etag="nlQqJtKPax7xG-zcUJnE" version="23.1.2" type="github">
  <diagram id="yPxyJZ8AM_hMuL3Unpa9" name="gitflow">
    <mxGraphModel dx="2735" dy="1993" grid="1" gridSize="10" guides="1" tooltips="1" connect="1" arrows="1" fold="1" page="1" pageScale="1" pageWidth="850" pageHeight="1100" math="0" shadow="0">
      <root>
        <mxCell id="0" />
        <mxCell id="1" parent="0" />
        <mxCell id="lnCJ62yekiQtUyWYJ2vn-1" value="" style="whiteSpace=wrap;html=1;aspect=fixed;fillColor=#f5f5f5;rounded=1;shadow=1;fontColor=#333333;strokeColor=#666666;arcSize=9;glass=0;sketch=1;curveFitting=1;jiggle=2;" vertex="1" parent="1">
          <mxGeometry x="1020" y="170" width="120" height="120" as="geometry" />
        </mxCell>
        <mxCell id="lnCJ62yekiQtUyWYJ2vn-2" style="edgeStyle=orthogonalEdgeStyle;rounded=0;orthogonalLoop=1;jettySize=auto;html=1;entryX=0;entryY=0.5;entryDx=0;entryDy=0;" edge="1" parent="1" target="lnCJ62yekiQtUyWYJ2vn-5">
          <mxGeometry relative="1" as="geometry">
            <mxPoint x="1145" y="230" as="sourcePoint" />
          </mxGeometry>
        </mxCell>
        <mxCell id="lnCJ62yekiQtUyWYJ2vn-3" value="" style="verticalLabelPosition=bottom;verticalAlign=top;html=1;shadow=0;dashed=0;strokeWidth=1;shape=mxgraph.android.phone2;strokeColor=#001DBC;fillColor=#1537a6;fontColor=#ffffff;" vertex="1" parent="1">
          <mxGeometry x="1065" y="200" width="30" height="60" as="geometry" />
        </mxCell>
        <mxCell id="lnCJ62yekiQtUyWYJ2vn-4" value="" style="group;rounded=1;arcSize=14;" vertex="1" connectable="0" parent="1">
          <mxGeometry x="1245" y="190" width="115" height="110" as="geometry" />
        </mxCell>
        <mxCell id="lnCJ62yekiQtUyWYJ2vn-5" value="" style="whiteSpace=wrap;html=1;aspect=fixed;fillColor=#f5f5f5;rounded=1;shadow=1;fontColor=#333333;strokeColor=#666666;arcSize=9;glass=0;sketch=1;curveFitting=1;jiggle=2;" vertex="1" parent="lnCJ62yekiQtUyWYJ2vn-4">
          <mxGeometry x="-14.99" y="-20" width="120" height="120" as="geometry" />
        </mxCell>
        <mxCell id="lnCJ62yekiQtUyWYJ2vn-6" value="&lt;div style=&quot;font-size: 9px;&quot;&gt;&lt;font style=&quot;font-size: 9px;&quot;&gt;toto-ms&lt;/font&gt;&lt;/div&gt;&lt;div style=&quot;font-size: 9px;&quot;&gt;&lt;font style=&quot;font-size: 9px;&quot;&gt;supermarket&lt;font style=&quot;font-size: 9px;&quot;&gt;&lt;br style=&quot;font-size: 9px;&quot;&gt;&lt;/font&gt;&lt;/font&gt;&lt;/div&gt;" style="shape=hexagon;perimeter=hexagonPerimeter2;whiteSpace=wrap;html=1;fixedSize=1;fillColor=#48505E;strokeColor=none;fontColor=#f8fafa;verticalAlign=bottom;spacingBottom=16;fontSize=9;" vertex="1" parent="lnCJ62yekiQtUyWYJ2vn-4">
          <mxGeometry width="90" height="80" as="geometry" />
        </mxCell>
        <mxCell id="lnCJ62yekiQtUyWYJ2vn-7" value="" style="image;aspect=fixed;html=1;points=[];align=center;fontSize=12;image=img/lib/azure2/other/API_Proxy.svg;imageBackground=none;" vertex="1" parent="lnCJ62yekiQtUyWYJ2vn-4">
          <mxGeometry x="27.110000000000014" y="10" width="35.79" height="20" as="geometry" />
        </mxCell>
        <mxCell id="lnCJ62yekiQtUyWYJ2vn-8" value="" style="group;rounded=1;arcSize=14;" vertex="1" connectable="0" parent="1">
          <mxGeometry x="1245" y="380" width="115" height="110" as="geometry" />
        </mxCell>
        <mxCell id="lnCJ62yekiQtUyWYJ2vn-9" value="" style="whiteSpace=wrap;html=1;aspect=fixed;fillColor=#f5f5f5;rounded=1;shadow=1;fontColor=#333333;strokeColor=#666666;arcSize=9;glass=0;sketch=1;curveFitting=1;jiggle=2;" vertex="1" parent="lnCJ62yekiQtUyWYJ2vn-8">
          <mxGeometry x="-14.99" y="-20" width="120" height="120" as="geometry" />
        </mxCell>
        <mxCell id="lnCJ62yekiQtUyWYJ2vn-10" value="" style="group" vertex="1" connectable="0" parent="lnCJ62yekiQtUyWYJ2vn-8">
          <mxGeometry width="90" height="80" as="geometry" />
        </mxCell>
        <mxCell id="lnCJ62yekiQtUyWYJ2vn-11" value="&lt;div style=&quot;font-size: 9px;&quot;&gt;&lt;font style=&quot;font-size: 9px;&quot;&gt;toto-ml&lt;/font&gt;&lt;/div&gt;&lt;div style=&quot;font-size: 9px;&quot;&gt;&lt;font style=&quot;font-size: 9px;&quot;&gt;supermarket&lt;font style=&quot;font-size: 9px;&quot;&gt;&lt;br style=&quot;font-size: 9px;&quot;&gt;&lt;/font&gt;&lt;/font&gt;&lt;/div&gt;" style="shape=hexagon;perimeter=hexagonPerimeter2;whiteSpace=wrap;html=1;fixedSize=1;fillColor=#48505E;strokeColor=none;fontColor=#f8fafa;verticalAlign=bottom;spacingBottom=16;fontSize=9;" vertex="1" parent="lnCJ62yekiQtUyWYJ2vn-10">
          <mxGeometry width="90" height="80" as="geometry" />
        </mxCell>
        <mxCell id="lnCJ62yekiQtUyWYJ2vn-12" value="" style="sketch=0;outlineConnect=0;dashed=0;verticalLabelPosition=bottom;verticalAlign=top;align=center;html=1;fontSize=12;fontStyle=0;aspect=fixed;pointerEvents=1;shape=mxgraph.aws4.sagemaker_model;" vertex="1" parent="lnCJ62yekiQtUyWYJ2vn-10">
          <mxGeometry x="36" y="10" width="18" height="18" as="geometry" />
        </mxCell>
        <mxCell id="lnCJ62yekiQtUyWYJ2vn-13" value="" style="group;verticalAlign=top;" vertex="1" connectable="0" parent="1">
          <mxGeometry x="1175" y="70" width="230" height="60" as="geometry" />
        </mxCell>
        <mxCell id="lnCJ62yekiQtUyWYJ2vn-14" value="" style="whiteSpace=wrap;html=1;fillColor=#f5f5f5;rounded=1;shadow=1;fontColor=#333333;strokeColor=#666666;arcSize=9;glass=0;sketch=1;curveFitting=1;jiggle=2;imageAspect=0;imageHeight=67;perimeterSpacing=0;" vertex="1" parent="lnCJ62yekiQtUyWYJ2vn-13">
          <mxGeometry width="230" height="60" as="geometry" />
        </mxCell>
        <mxCell id="lnCJ62yekiQtUyWYJ2vn-15" value="&lt;font color=&quot;#0c0c0c&quot; style=&quot;font-size: 10px;&quot;&gt;supermarket&lt;/font&gt;" style="html=1;outlineConnect=0;fillColor=#CCCCCC;strokeColor=default;gradientColor=none;gradientDirection=north;strokeWidth=1;shape=mxgraph.networks.bus;gradientColor=none;gradientDirection=north;fontColor=#ffffff;perimeter=backbonePerimeter;backboneSize=20;shadow=0;fontSize=10;" vertex="1" parent="lnCJ62yekiQtUyWYJ2vn-13">
          <mxGeometry x="15" y="19.997499999999995" width="200" height="20" as="geometry" />
        </mxCell>
        <mxCell id="lnCJ62yekiQtUyWYJ2vn-16" style="edgeStyle=orthogonalEdgeStyle;rounded=0;orthogonalLoop=1;jettySize=auto;html=1;entryX=0.5;entryY=0;entryDx=0;entryDy=0;" edge="1" parent="1" source="lnCJ62yekiQtUyWYJ2vn-5" target="lnCJ62yekiQtUyWYJ2vn-9">
          <mxGeometry relative="1" as="geometry" />
        </mxCell>
        <mxCell id="lnCJ62yekiQtUyWYJ2vn-17" value="" style="whiteSpace=wrap;html=1;aspect=fixed;fillColor=#f5f5f5;rounded=1;shadow=1;fontColor=#333333;strokeColor=#666666;arcSize=9;glass=0;sketch=1;curveFitting=1;jiggle=2;" vertex="1" parent="1">
          <mxGeometry x="1435" y="170" width="120" height="120" as="geometry" />
        </mxCell>
        <mxCell id="lnCJ62yekiQtUyWYJ2vn-18" value="supermarket" style="strokeWidth=2;html=1;shape=mxgraph.flowchart.database;whiteSpace=wrap;fontSize=8;fillColor=#4a5066;strokeColor=none;fontColor=#fafafa;" vertex="1" parent="1">
          <mxGeometry x="1465" y="195" width="60" height="70" as="geometry" />
        </mxCell>
        <mxCell id="lnCJ62yekiQtUyWYJ2vn-19" style="edgeStyle=orthogonalEdgeStyle;rounded=0;orthogonalLoop=1;jettySize=auto;html=1;" edge="1" parent="1" source="lnCJ62yekiQtUyWYJ2vn-5" target="lnCJ62yekiQtUyWYJ2vn-17">
          <mxGeometry relative="1" as="geometry" />
        </mxCell>
        <mxCell id="lnCJ62yekiQtUyWYJ2vn-20" style="edgeStyle=orthogonalEdgeStyle;rounded=0;orthogonalLoop=1;jettySize=auto;html=1;exitX=0.5;exitY=0;exitDx=0;exitDy=0;entryX=0.5;entryY=1;entryDx=0;entryDy=0;startArrow=classic;startFill=1;" edge="1" parent="1" source="lnCJ62yekiQtUyWYJ2vn-5" target="lnCJ62yekiQtUyWYJ2vn-14">
          <mxGeometry relative="1" as="geometry" />
        </mxCell>
      </root>
    </mxGraphModel>
  </diagram>
</mxfile>
